<?xml version="1.0" encoding="iso-8859-1"?>
<!-- Uploaded to: SVG Repo, www.svgrepo.com, Generator: SVG Repo Mixer Tools -->
<svg version="1.1" id="Layer_1" xmlns="http://www.w3.org/2000/svg" xmlns:xlink="http://www.w3.org/1999/xlink" 
	 viewBox="0 0 117.499 117.499" xml:space="preserve">
<g>
	<g>
		<g>
			<path d="M58.499,117.499L5.426,51.732l33.621-25.746h14.371L39.894,52.03l18.6,57.684l18.431-57.685L63.527,25.986h14.427
				l33.62,25.747L58.499,117.499z M67.266,28.267l12.12,23.558l-19.127,59.863l48.071-59.566L77.181,28.267H67.266z M8.67,52.121
				l48.06,59.553l-19.3-59.851l12.233-23.557h-9.844L8.67,52.121z"/>
		</g>
		<g>
			<rect x="7.443" y="50.485" width="102.508" height="2.281"/>
		</g>
		<g>
			<rect x="44.541" y="25.986" width="29.625" height="2.281"/>
		</g>
	</g>
	<g>
		<rect x="29.862" y="17.488" transform="matrix(-0.3987 -0.9171 0.9171 -0.3987 31.3513 57.814)" width="9.535" height="2.281"/>
	</g>
	<g>
		<rect x="57.557" width="2.281" height="20.909"/>
	</g>
	<g>
		<rect x="81.386" y="13.51" transform="matrix(-0.8541 -0.5201 0.5201 -0.8541 143.3242 77.4605)" width="2.28" height="10.237"/>
	</g>
	<g>
		<rect x="0.448" y="24.139" transform="matrix(-0.5797 -0.8148 0.8148 -0.5797 -0.7275 50.1846)" width="24.261" height="2.281"/>
	</g>
	<g>
		
			<rect x="102.87" y="12.572" transform="matrix(-0.7779 -0.6284 0.6284 -0.7779 169.0349 110.3012)" width="2.281" height="25.411"/>
	</g>
	<g>
		<polygon style="fill:#FFDE7D;" points="58.5,32.545 51.737,45.518 63.713,45.518 		"/>
	</g>
	<g>
		<polygon style="fill:#FFDE7D;" points="32.727,59.061 22.799,59.061 41.901,83.633 		"/>
	</g>
	<g>
		<polygon style="fill:#FFDE7D;" points="84.811,59.061 94.74,59.061 75.637,83.633 		"/>
	</g>
</g>
</svg>