<svg xmlns="http://www.w3.org/2000/svg" xmlns:xlink="http://www.w3.org/1999/xlink" viewBox="0,0,256,256" width="200px" height="200px"><defs><linearGradient x1="32" y1="9" x2="32" y2="55" gradientUnits="userSpaceOnUse" id="color-1"><stop offset="0" stop-color="#0074d9"></stop><stop offset="1" stop-color="#7ed321"></stop></linearGradient><linearGradient x1="32" y1="21.762" x2="32" y2="45.764" gradientUnits="userSpaceOnUse" id="color-2"><stop offset="0" stop-color="#0074d9"></stop><stop offset="1" stop-color="#0074d9"></stop></linearGradient></defs><g transform="translate(-34.56,-34.56) scale(1.27,1.27)"><g fill="none" fill-rule="nonzero" stroke="none" stroke-width="1" stroke-linecap="butt" stroke-linejoin="miter" stroke-miterlimit="10" stroke-dasharray="" stroke-dashoffset="0" font-family="none" font-weight="none" font-size="none" text-anchor="none" style="mix-blend-mode: normal"><g transform="scale(4,4)"><path d="M50,9h-36c-2.757,0 -5,2.243 -5,5v36c0,2.757 2.243,5 5,5h36c2.757,0 5,-2.243 5,-5v-36c0,-2.757 -2.243,-5 -5,-5zM53,50c0,1.654 -1.346,3 -3,3h-36c-1.654,0 -3,-1.346 -3,-3v-36c0,-1.654 1.346,-3 3,-3h36c1.654,0 3,1.346 3,3z" fill="url(#color-1)"></path><path d="M49.81,24.634c0,0.189 -0.189,0.367 -0.377,0.367h-2.158l-9.649,19.821c-0.095,0.084 -0.189,0.178 -0.377,0.178c-0.188,0 -0.283,-0.094 -0.377,-0.178l-4.589,-8.947l-4.966,8.947c-0.094,0.084 -0.188,0.178 -0.377,0.178c-0.189,0 -0.283,-0.094 -0.377,-0.178l-9.743,-19.727h-2.252c-0.189,0 -0.377,-0.178 -0.377,-0.367v-1.362c0,-0.189 0.189,-0.367 0.377,-0.367h7.627c0.189,0 0.377,0.178 0.377,0.367v1.362c0,0.189 -0.189,0.367 -0.377,0.367h-1.446l6.757,14.792l3.562,-6.39l-4.505,-8.402h-1.498c-0.189,0 -0.377,-0.178 -0.377,-0.367v-1.362c0,-0.189 0.189,-0.367 0.377,-0.367h6.558c0.188,0.001 0.377,0.179 0.377,0.368v1.362c0,0.189 -0.189,0.367 -0.377,0.367h-1.31l2.535,5.112l3.09,-5.112h-1.467c-0.189,0 -0.377,-0.178 -0.377,-0.367v-1.362c0,-0.189 0.189,-0.367 0.377,-0.367h5.531c0.189,0 0.377,0.178 0.377,0.367v1.362c0,0.189 -0.189,0.367 -0.377,0.367h-1.446l-4.494,7.49l3.656,7.302l7.03,-14.792h-1.896c-0.189,0 -0.377,-0.178 -0.377,-0.367v-1.362c0,-0.189 0.189,-0.367 0.377,-0.367h6.579c0.189,0 0.377,0.178 0.377,0.367v1.267z" fill="url(#color-2)"></path></g></g></g></svg>