<?xml version="1.0" encoding="iso-8859-1"?>
<!-- Generator: Adobe Illustrator 22.0.1, SVG Export Plug-In . SVG Version: 6.00 Build 0)  -->
<svg version="1.1" id="Layer_1" xmlns="http://www.w3.org/2000/svg" xmlns:xlink="http://www.w3.org/1999/xlink" x="0px" y="0px"
	 viewBox="0 0 2048 2048" style="enable-background:new 0 0 2048 2048;" xml:space="preserve">
<g>
	<g>
		<path style="fill:#BBECFF;" d="M576.255,1441.215c-176.862,0-320.255-143.393-320.255-320.267
			c0-88.449,35.848-168.504,93.799-226.467c57.951-57.951,138.03-93.787,226.456-93.787h18.997
			c0-236.798,191.95-428.748,428.748-428.748s428.748,191.95,428.748,428.748h18.997c176.862,0,320.255,143.368,320.255,320.255
			c0,88.437-35.848,168.504-93.799,226.467c-57.951,57.951-138.03,93.799-226.456,93.799H576.255z"/>
	</g>
	<path style="fill:#72B8CE;" d="M1363.555,1676.053h-679.11c-22.804,0-41.29-18.487-41.29-41.29v-461.06
		c0-22.804,18.487-41.29,41.29-41.29h679.109c22.804,0,41.29,18.487,41.29,41.29v461.06
		C1404.845,1657.567,1386.359,1676.053,1363.555,1676.053z"/>
	<path style="fill:#B4D996;" d="M643.159,1563.075v71.69c0,22.802,18.488,41.29,41.29,41.29h446.379l-304.485-271.824
		L643.159,1563.075z"/>
	<circle style="fill:#F7E07F;" cx="963.783" cy="1282.442" r="51.422"/>
	<path style="fill:#BFE69F;" d="M1404.841,1553.434v81.332c0,22.802-18.488,41.29-41.29,41.29H877.77l-0.002-0.002l321.388-341.167
		l205.689,218.543L1404.841,1553.434z"/>
</g>
</svg>
