<svg xmlns="http://www.w3.org/2000/svg" xmlns:xlink="http://www.w3.org/1999/xlink" viewBox="0,0,256,256" width="200px" height="200px"><g fill="#5c7cfa" fill-rule="nonzero" stroke="none" stroke-width="1" stroke-linecap="butt" stroke-linejoin="miter" stroke-miterlimit="10" stroke-dasharray="" stroke-dashoffset="0" font-family="none" font-weight="none" font-size="none" text-anchor="none" style="mix-blend-mode: normal"><g transform="scale(5.12,5.12)"><path d="M9,4c-2.74952,0 -5,2.25048 -5,5v32c0,2.74952 2.25048,5 5,5h32c2.74952,0 5,-2.25048 5,-5v-32c0,-2.74952 -2.25048,-5 -5,-5zM9,6h32c1.66848,0 3,1.33152 3,3v32c0,1.66848 -1.33152,3 -3,3h-32c-1.66848,0 -3,-1.33152 -3,-3v-32c0,-1.66848 1.33152,-3 3,-3zM18.375,15.99805c-0.179,0 -0.35742,0.17561 -0.35742,0.34961v1.30273c0,0.175 0.17842,0.34961 0.35742,0.34961h1.43555l4.29492,8.01953l-3.40039,6.09961l-6.44141,-14.11914h1.37891c0.179,0 0.35742,-0.17366 0.35742,-0.34766v-1.30273c0,-0.175 -0.17842,-0.34961 -0.35742,-0.34961h-7.28516c-0.179,0 -0.35742,0.17366 -0.35742,0.34766v1.30273c0,0.175 0.17842,0.34961 0.35742,0.34961h2.14844l9.30469,18.82617c0.09,0.087 0.17842,0.17383 0.35742,0.17383c0.179,0 0.26938,-0.08683 0.35938,-0.17383l4.74219,-8.53906l4.38281,8.53906c0.09,0.087 0.18038,0.17383 0.35938,0.17383c0.178,0 0.26647,-0.08683 0.35547,-0.17383l9.2168,-18.91406h2.05859c0.179,0 0.35742,-0.17366 0.35742,-0.34766v-1.21484c0,-0.175 -0.17842,-0.34961 -0.35742,-0.34961h-6.28516c-0.179,0 -0.35742,0.17366 -0.35742,0.34766v1.30273c0,0.175 0.17942,0.34961 0.35742,0.34961h1.81055l-6.71094,14.11914l-3.48828,-6.9707l4.29492,-7.14844h1.37891c0.179,0 0.35742,-0.17366 0.35742,-0.34766v-1.30273c0,-0.175 -0.17842,-0.34961 -0.35742,-0.34961h-5.28516c-0.179,0 -0.35742,0.17366 -0.35742,0.34766v1.30273c0,0.175 0.17842,0.34961 0.35742,0.34961h1.40039l-2.95312,4.88477l-2.41602,-4.88477h1.25391c0.179,0 0.35742,-0.17366 0.35742,-0.34766v-1.30273c0,-0.175 -0.17842,-0.35056 -0.35742,-0.35156z"></path></g></g></svg>