<?xml version="1.0" encoding="iso-8859-1"?>
<!-- Generator: Adobe Illustrator 19.0.0, SVG Export Plug-In . SVG Version: 6.00 Build 0)  -->
<svg version="1.1" xmlns="http://www.w3.org/2000/svg" xmlns:xlink="http://www.w3.org/1999/xlink" x="0px" y="0px"
	 viewBox="0 0 512 512" style="enable-background:new 0 0 512 512;" xml:space="preserve">
<g id="F401_x2C__Full_Screen_x2C__Arrow_x2C__equal">
	<path style="fill:#9BC9FF;" d="M406,326h80c0,4.51,0,155.49,0,160c-4.51,0-155.49,0-160,0v-80h80V326z"/>
	<path style="fill:#9BC9FF;" d="M106,106v80H26c0-4.51,0-155.49,0-160c4.51,0,155.49,0,160,0v80H106z"/>
	<path style="fill:#9BC9FF;" d="M186,486c-4.51,0-155.49,0-160,0c0-4.51,0-155.49,0-160h80v80h80V486z"/>
	<path style="fill:#9BC9FF;" d="M406,186v-80h-80V26c4.51,0,155.49,0,160,0c0,4.51,0,155.49,0,160H406z"/>
	<path style="fill:#1E81CE;" d="M106,196H26c-5.523,0-10-4.477-10-10V26c0-5.523,4.477-10,10-10h160c5.523,0,10,4.477,10,10v80
		c0,5.523-4.477,10-10,10h-70v70C116,191.523,111.523,196,106,196z M36,176h60v-70c0-5.523,4.477-10,10-10h70V36H36V176z"/>
	<path style="fill:#1E81CE;" d="M186,496H26c-5.523,0-10-4.478-10-10V326c0-5.522,4.477-10,10-10h80c5.523,0,10,4.478,10,10v70h70
		c5.523,0,10,4.478,10,10v80C196,491.522,191.523,496,186,496z M36,476h140v-60h-70c-5.523,0-10-4.478-10-10v-70H36V476z"/>
	<path style="fill:#1E81CE;" d="M486,196h-80c-5.523,0-10-4.477-10-10v-70h-70c-5.523,0-10-4.477-10-10V26c0-5.523,4.477-10,10-10
		h160c5.522,0,10,4.477,10,10v160C496,191.523,491.522,196,486,196z M416,176h60V36H336v60h70c5.522,0,10,4.477,10,10V176z"/>
	<path style="fill:#1E81CE;" d="M486,496H326c-5.523,0-10-4.478-10-10v-80c0-5.522,4.477-10,10-10h70v-70c0-5.522,4.477-10,10-10h80
		c5.522,0,10,4.478,10,10v160C496,491.522,491.522,496,486,496z M336,476h140V336h-60v70c0,5.522-4.478,10-10,10h-70V476z"/>
	<path style="fill:#1E81CE;" d="M336,236H176c-5.523,0-10-4.477-10-10s4.477-10,10-10h160c5.522,0,10,4.477,10,10
		S341.522,236,336,236z"/>
	<path style="fill:#1E81CE;" d="M336,306H176c-5.523,0-10-4.478-10-10s4.477-10,10-10h160c5.522,0,10,4.478,10,10
		S341.522,306,336,306z"/>
</g>
<g id="Layer_1">
</g>
</svg>
