<svg version="1.1" xmlns="http://www.w3.org/2000/svg" viewBox="0 0 137.144 137.144" xmlns:xlink="http://www.w3.org/1999/xlink" enable-background="new 0 0 137.144 137.144">
  <g>
    <g>
      <path d="M27.379,68.572l41.193,41.193l41.193-41.193L68.572,27.38L27.379,68.572z M109.715,0H27.429C12.28,0,0,12.28,0,27.428    v82.287c0,15.149,12.28,27.429,27.429,27.429h82.286c15.149,0,27.429-12.28,27.429-27.429V27.428    C137.144,12.28,124.864,0,109.715,0z M123.43,102.859c0,11.361-9.21,20.571-20.571,20.571H34.286    c-11.361,0-20.572-9.21-20.572-20.571V34.286c0-11.361,9.21-20.572,20.572-20.572h68.572c11.361,0,20.571,9.211,20.571,20.572    V102.859z" id="id_138" style="fill: rgb(75, 112, 245);"></path>
    </g>
  </g>
</svg>